# xmcd CD database file
#
# Track frame offsets:
#	150
#	19444
#	38778
#	63599
#	77967
#	97402
#	117663
#	142169
#	152902
#	161595
#	179284
#
# Disc length: 2662 seconds
#
# Revision: 0
# Processed by: cddbd v1.5.2PL0 Copyright (c) Steve Scherf et al.
# Submitted via: CDex 1.70beta2
#
DISCID=a50a640b
DTITLE=debbie danbrook - sacred sounds for the spa
DYEAR=2001
DGENRE=New Age
TTITLE0=water and light
TTITLE1=silent beginning
TTITLE2=presence
TTITLE3=pearl
TTITLE4=ebony breath
TTITLE5=radiant
TTITLE6=blue hush
TTITLE7=boundless
TTITLE8=veils of dawn
TTITLE9=heart waves
TTITLE10=moon walk
EXTD=YEAR: 2001
EXTT0=
EXTT1=
EXTT2=
EXTT3=
EXTT4=
EXTT5=
EXTT6=
EXTT7=
EXTT8=
EXTT9=
EXTT10=
PLAYORDER=
